<svg width="23" height="23" viewBox="0 0 23 23" fill="none" xmlns="http://www.w3.org/2000/svg">
<path fill-rule="evenodd" clip-rule="evenodd" d="M11.5619 22.623C17.7205 22.623 22.7131 17.6305 22.7131 11.4718C22.7131 5.31318 17.7205 0.320618 11.5619 0.320618C5.40321 0.320618 0.410645 5.31318 0.410645 11.4718C0.410645 17.6305 5.40321 22.623 11.5619 22.623ZM3.46055 11.7612C3.46055 7.33998 7.08993 3.75176 11.5619 3.75176C16.0338 3.75176 19.6632 7.33998 19.6632 11.7612C19.6632 15.3013 17.3462 18.2969 14.13 19.3701C13.7168 19.4422 13.5872 19.1859 13.5872 18.9696V16.7751C13.5872 16.0302 13.3198 15.5416 13.0282 15.2933C14.8348 15.0931 16.7305 14.4203 16.7305 11.3607C16.7305 10.4717 16.4226 9.75882 15.8961 9.19015C15.9771 8.98991 16.2606 8.15694 15.815 7.07567C15.815 7.07567 15.1345 6.85941 13.5872 7.89262C12.9472 7.71642 12.2505 7.62831 11.5619 7.62831C10.8732 7.62831 10.1765 7.71642 9.53653 7.89262C7.98918 6.85941 7.30867 7.07567 7.30867 7.07567C6.8631 8.15694 7.14664 8.98991 7.22766 9.19015C6.70107 9.75882 6.39322 10.4717 6.39322 11.3607C6.39322 14.4123 8.28083 15.1011 10.0793 15.3013C9.85248 15.5016 9.64185 15.854 9.56893 16.3746C9.10716 16.5668 7.91627 16.9272 7.21145 15.7098C7.21145 15.7098 6.78208 14.9409 5.97195 14.8848C5.97195 14.8848 5.17803 14.8688 5.91524 15.3654C5.91524 15.3654 6.44183 15.6137 6.81449 16.5428C6.81449 16.5428 7.29247 18.0966 9.53653 17.6161V18.9696C9.53653 19.1859 9.40691 19.4342 9.00184 19.3701C5.78562 18.3049 3.46055 15.3013 3.46055 11.7612Z" fill="white"/>
</svg>
