<svg width="23" height="23" viewBox="0 0 23 23" fill="#ffffff" xmlns="http://www.w3.org/2000/svg">
<path d="M8.16131 16.0769V8.72699H5.71711V16.0777H8.16052L8.16131 16.0769ZM6.93921 7.7223C7.79083 7.7223 8.32222 7.15717 8.32222 6.45154C8.30652 5.73099 7.79083 5.18234 6.95647 5.18234C6.11898 5.18234 5.57347 5.73178 5.57347 6.45154C5.57347 7.15795 6.10407 7.72309 6.92429 7.72309L6.93921 7.7223ZM16.9719 16.0769V11.8627C16.9719 9.60451 15.7663 8.55352 14.1596 8.55352C12.8613 8.55352 12.2805 9.26779 11.9571 9.76777V8.72542H9.51371C9.54589 9.41614 9.51371 16.0769 9.51371 16.0769H11.9571V11.9718C11.9571 11.752 11.9728 11.5322 12.0372 11.3768C12.213 10.9373 12.6157 10.4828 13.2899 10.4828C14.1745 10.4828 14.5301 11.1563 14.5301 12.1445V16.0777H16.9727L16.9719 16.0769ZM11.2758 0.320618C17.3447 0.320618 22.2645 5.23964 22.2645 11.3093C22.2645 17.3782 17.3447 22.2981 11.2758 22.2981C5.20613 22.2981 0.287109 17.3782 0.287109 11.3093C0.287109 5.23964 5.20613 0.320618 11.2758 0.320618Z" fill="white"/>
</svg>
