<svg width="23" height="23" viewBox="0 0 23 23" fill="none" xmlns="http://www.w3.org/2000/svg">
<path fill-rule="evenodd" clip-rule="evenodd" d="M11.8376 22.4324C17.9436 22.4324 22.8935 17.4825 22.8935 11.3765C22.8935 5.27051 17.9436 0.320618 11.8376 0.320618C5.73163 0.320618 0.781738 5.27051 0.781738 11.3765C0.781738 17.4825 5.73163 22.4324 11.8376 22.4324ZM15.5832 8.76559C16.2837 8.13515 16.8716 7.60872 16.8886 7.59386C16.9141 7.56838 16.1075 7.56414 11.8366 7.56414C7.56571 7.56414 6.75909 7.56838 6.78456 7.59386C6.80154 7.60872 7.38953 8.13515 8.09002 8.76559C8.79051 9.39391 9.91555 10.4043 10.5927 11.0135C11.2677 11.6206 11.8281 12.1173 11.8366 12.1173C11.8451 12.1173 12.4055 11.6206 13.0805 11.0135C13.7576 10.4043 14.8827 9.39391 15.5832 8.76559ZM10.304 12.1258C10.2998 12.1195 9.3318 11.2492 8.15158 10.1942C6.97348 9.13918 5.99067 8.26251 5.97156 8.24553C5.9376 8.21793 5.93548 8.43869 5.93548 11.7437C5.93548 13.6818 5.94185 15.2696 5.94821 15.2696C5.97156 15.2696 10.3082 12.1407 10.304 12.1258ZM13.3925 12.1322C13.3989 12.1577 17.7165 15.2759 17.7292 15.2653C17.7335 15.2589 17.7356 13.6712 17.7335 11.7374L17.7271 8.22005L15.5577 10.1687C14.3647 11.2407 13.3904 12.1237 13.3925 12.1322ZM11.8684 13.3336C11.6901 13.3464 11.601 13.3018 11.3335 13.0662L11.3293 13.0625C11.2101 12.958 11.1084 12.8687 11.1 12.8645C11.0894 12.8603 10.926 12.9707 10.7307 13.1129C10.6115 13.2007 10.219 13.4849 9.71988 13.8463C9.41026 14.0706 9.05962 14.3245 8.70773 14.5797L7.03292 15.7896L9.43369 15.796C10.754 15.7981 12.9213 15.7981 14.2501 15.796L16.6657 15.7896L14.8614 14.4863C14.4984 14.2235 14.1455 13.9684 13.8381 13.7461C13.3062 13.3615 12.9102 13.0752 12.8321 13.0174L12.6093 12.8539L12.3885 13.045C12.1295 13.27 12.0404 13.3188 11.8684 13.3336Z" fill="white"/>
</svg>
