<svg width="275" height="275" viewBox="0 0 275 275" fill="none" xmlns="http://www.w3.org/2000/svg">
<path d="M12.5 62.5C12.5 34.8858 34.8858 12.5 62.5 12.5H212.5C240.114 12.5 262.5 34.8858 262.5 62.5V212.5C262.5 240.114 240.114 262.5 212.5 262.5H62.5C34.8858 262.5 12.5 240.114 12.5 212.5V62.5Z" fill="#FFE8BF"/>
<path fill-rule="evenodd" clip-rule="evenodd" d="M0 62.5C0 27.9822 27.9822 0 62.5 0H212.5C247.018 0 275 27.9822 275 62.5V212.5C275 247.018 247.018 275 212.5 275H62.5C27.9822 275 0 247.018 0 212.5V62.5ZM62.5 25C41.7893 25 25 41.7893 25 62.5V212.5C25 233.211 41.7893 250 62.5 250H212.5C233.211 250 250 233.211 250 212.5V62.5C250 41.7893 233.211 25 212.5 25H62.5Z" fill="#E7B865"/>
<path d="M156.392 114.023C156.013 109.856 154.328 106.617 151.335 104.307C148.381 101.958 144.157 100.784 138.665 100.784C135.028 100.784 131.998 101.258 129.574 102.205C127.15 103.152 125.331 104.458 124.119 106.125C122.907 107.754 122.282 109.629 122.244 111.75C122.169 113.492 122.509 115.027 123.267 116.352C124.062 117.678 125.199 118.852 126.676 119.875C128.191 120.86 130.009 121.731 132.131 122.489C134.252 123.246 136.638 123.909 139.29 124.477L149.29 126.75C155.047 128 160.123 129.667 164.517 131.75C168.949 133.833 172.661 136.314 175.653 139.193C178.684 142.072 180.975 145.386 182.528 149.136C184.081 152.886 184.877 157.091 184.915 161.75C184.877 169.098 183.021 175.405 179.347 180.67C175.672 185.936 170.388 189.97 163.494 192.773C156.638 195.576 148.362 196.977 138.665 196.977C128.93 196.977 120.445 195.519 113.21 192.602C105.975 189.686 100.35 185.254 96.3352 179.307C92.3201 173.36 90.2557 165.841 90.142 156.75H117.074C117.301 160.5 118.305 163.625 120.085 166.125C121.866 168.625 124.309 170.519 127.415 171.807C130.559 173.095 134.195 173.739 138.324 173.739C142.112 173.739 145.331 173.227 147.983 172.205C150.672 171.182 152.737 169.761 154.176 167.943C155.616 166.125 156.354 164.042 156.392 161.693C156.354 159.496 155.672 157.621 154.347 156.068C153.021 154.477 150.975 153.114 148.21 151.977C145.483 150.803 141.998 149.723 137.756 148.739L125.597 145.898C115.521 143.587 107.585 139.856 101.79 134.705C95.9943 129.515 93.1155 122.508 93.1534 113.682C93.1155 106.485 95.0473 100.178 98.9489 94.7614C102.85 89.3447 108.248 85.1212 115.142 82.0909C122.036 79.0606 129.896 77.5454 138.722 77.5454C147.737 77.5454 155.559 79.0795 162.188 82.1477C168.854 85.178 174.025 89.4394 177.699 94.9318C181.373 100.424 183.248 106.788 183.324 114.023H156.392Z" fill="#482E00"/>
<path d="M222.898 204.023V240.387H214.127V212.226H213.914L205.782 217.198V209.598L214.748 204.023H222.898Z" fill="#482E00"/>
</svg>
